<svg width="38" height="41" viewBox="0 0 38 41" fill="none" xmlns="http://www.w3.org/2000/svg">
    <path d="M17.2322 39.782C18.2085 40.7584 19.7915 40.7584 20.7678 39.782L36.6777 23.8721C37.654 22.8958 37.654 21.3129 36.6777 20.3366C35.7014 19.3603 34.1184 19.3603 33.1421 20.3366L19 34.4787L4.85787 20.3366C3.88155 19.3603 2.29864 19.3603 1.32233 20.3366C0.346021 21.3129 0.346021 22.8958 1.32233 23.8721L17.2322 39.782ZM21.5 3C21.5 1.61929 20.3807 0.499998 19 0.499998C17.6193 0.499998 16.5 1.61929 16.5 3H21.5ZM21.5 38.0143V20.5071H16.5V38.0143H21.5ZM21.5 20.5071V3H16.5V20.5071H21.5Z" fill="#FFF2D8"/>
</svg>