<?xml version="1.0" encoding="UTF-8"?>
<!DOCTYPE svg PUBLIC "-//W3C//DTD SVG 1.1//EN" "http://www.w3.org/Graphics/SVG/1.1/DTD/svg11.dtd">
<svg xmlns="http://www.w3.org/2000/svg" version="1.1" width="512px" height="512px" style="shape-rendering:geometricPrecision; text-rendering:geometricPrecision; image-rendering:optimizeQuality; fill-rule:evenodd; clip-rule:evenodd" xmlns:xlink="http://www.w3.org/1999/xlink">
<g><path style="opacity:0.955" fill="#fff2d8" d="M 53.5,-0.5 C 62.5,-0.5 71.5,-0.5 80.5,-0.5C 107.217,4.91109 132.551,14.4111 156.5,28C 169.085,34.8732 181.252,42.3732 193,50.5C 220.198,42.0341 248.031,39.2008 276.5,42C 287.077,42.8489 297.411,44.8489 307.5,48C 311.926,53.4414 311.259,58.1081 305.5,62C 289.121,59.3906 272.621,57.5573 256,56.5C 252.206,57.2297 248.373,57.7297 244.5,58C 307.236,137.418 376.403,211.251 452,279.5C 458.906,201.835 431.406,139.668 369.5,93C 357.143,84.8182 344.143,77.6515 330.5,71.5C 326.066,66.179 326.733,61.679 332.5,58C 338.571,57.6859 344.237,59.1859 349.5,62.5C 414.361,95.8862 453.527,148.553 467,220.5C 472.014,253.348 469.847,285.682 460.5,317.5C 479.884,345.602 495.051,375.936 506,408.5C 508.045,416.249 509.878,423.915 511.5,431.5C 511.5,439.833 511.5,448.167 511.5,456.5C 509.926,465.211 506.926,473.545 502.5,481.5C 497.622,485.73 493.122,485.397 489,480.5C 488.333,477.833 488.333,475.167 489,472.5C 495.125,460.185 497.125,447.185 495,433.5C 491.741,415.055 486.074,397.388 478,380.5C 470.761,365.682 462.761,351.349 454,337.5C 451.356,342.621 448.856,347.788 446.5,353C 459.476,373.122 469.643,394.622 477,417.5C 490.38,468.114 471.547,488.281 420.5,478C 391.264,468.381 363.931,455.048 338.5,438C 232.29,365.457 143.124,275.957 71,169.5C 55.7555,146.01 43.4222,121.01 34,94.5C 30.228,82.7643 28.8947,70.7643 30,58.5C 33.9848,38.6935 46.1514,29.0268 66.5,29.5C 91.3929,32.0752 114.726,39.5752 136.5,52C 143.912,55.788 151.079,59.9547 158,64.5C 162.968,61.5994 168.135,59.0994 173.5,57C 152.444,43.3051 130.111,31.9718 106.5,23C 89.944,16.6264 72.944,14.2931 55.5,16C 28.8253,22.1825 15.1586,39.0158 14.5,66.5C 16.229,86.6856 21.229,106.019 29.5,124.5C 28.2821,131.282 24.2821,133.782 17.5,132C 16.3333,130.833 15.1667,129.667 14,128.5C 7.6002,113.539 2.76687,98.2055 -0.5,82.5C -0.5,72.5 -0.5,62.5 -0.5,52.5C 6.27116,23.3955 24.2712,5.72886 53.5,-0.5 Z M 60.5,45.5 C 73.9722,45.4944 86.9722,47.9944 99.5,53C 113.724,58.7788 127.391,65.6122 140.5,73.5C 113.833,91.5 91.5,113.833 73.5,140.5C 60.2315,120.286 51.0648,98.2856 46,74.5C 45.1955,68.4308 45.5288,62.4308 47,56.5C 49.6157,50.3723 54.1157,46.7057 60.5,45.5 Z M 220.5,59.5 C 222.467,59.2606 224.301,59.5939 226,60.5C 280.678,131.534 340.845,198.034 406.5,260C 420.333,272.5 434.167,285 448,297.5C 446.994,307.865 444.328,317.865 440,327.5C 367.221,263.056 299.554,193.722 237,119.5C 223.015,102.193 209.515,84.5266 196.5,66.5C 204.505,63.8359 212.505,61.5025 220.5,59.5 Z M 179.5,71.5 C 238.349,149.883 303.683,223.05 375.5,291C 394.833,308.333 414.167,325.667 433.5,343C 427.038,356.101 419.205,368.268 410,379.5C 386.939,360.779 364.773,340.945 343.5,320C 328.168,307.41 310.501,302.077 290.5,304C 273.171,299.67 257.837,291.67 244.5,280C 224.079,262.314 209.245,240.814 200,215.5C 198.95,210.536 198.117,205.536 197.5,200.5C 200.45,183.857 197.283,168.524 188,154.5C 171.893,134.448 156.393,113.948 141.5,93C 153.585,84.736 166.251,77.5694 179.5,71.5 Z M 127.5,103.5 C 129.193,104.475 130.693,105.808 132,107.5C 146.513,127.858 161.513,147.858 177,167.5C 179.261,171.95 180.928,176.617 182,181.5C 179.252,208.507 185.585,233.173 201,255.5C 215.052,276.607 232.886,293.773 254.5,307C 272.994,317.957 292.994,322.957 314.5,322C 321.081,324.29 327.081,327.624 332.5,332C 353.939,353.112 376.273,373.112 399.5,392C 385.996,406.354 370.663,418.187 353.5,427.5C 330.219,413.061 307.886,397.227 286.5,380C 218.423,323.927 157.923,260.76 105,190.5C 97.3212,179.803 90.1546,168.803 83.5,157.5C 94.8114,136.846 109.478,118.846 127.5,103.5 Z M 436.5,369.5 C 450.664,390.842 460.164,414.175 465,439.5C 466.757,449.134 463.924,456.967 456.5,463C 448.285,465.934 439.952,466.267 431.5,464C 409.36,458.26 388.693,449.26 369.5,437C 397.4,419.934 419.733,397.434 436.5,369.5 Z"/></g>
<g><path style="opacity:0.962" fill="#fff2d8" d="M 432.5,-0.5 C 435.167,-0.5 437.833,-0.5 440.5,-0.5C 445.298,5.06796 449.131,11.4013 452,18.5C 458.085,22.1265 464.252,25.6265 470.5,29C 472.942,33.0524 473.109,37.2191 471,41.5C 465.406,45.0479 459.573,48.2146 453.5,51C 449.873,57.0855 446.373,63.2521 443,69.5C 438.948,71.9423 434.781,72.109 430.5,70C 426.952,64.4064 423.785,58.573 421,52.5C 415.406,48.9521 409.573,45.7854 403.5,43C 398.167,38 398.167,33 403.5,28C 409.573,25.2146 415.406,22.0479 421,18.5C 423.667,13.1667 426.333,7.83333 429,2.5C 430.145,1.36362 431.312,0.363622 432.5,-0.5 Z M 435.5,24.5 C 438.118,29.1178 441.784,32.7845 446.5,35.5C 441.806,38.0271 438.306,41.6938 436,46.5C 434.368,41.0345 430.868,37.3679 425.5,35.5C 430.953,33.716 434.286,30.0493 435.5,24.5 Z"/></g>
<g><path style="opacity:0.944" fill="#fff2d8" d="M 511.5,111.5 C 511.5,114.167 511.5,116.833 511.5,119.5C 508.313,122.925 504.313,124.259 499.5,123.5C 501.171,133.33 497.171,137.163 487.5,135C 484.034,131.96 482.7,128.126 483.5,123.5C 474.289,124.458 470.455,120.458 472,111.5C 474.944,107.886 478.777,106.553 483.5,107.5C 483.26,96.199 488.093,92.8657 498,97.5C 499.316,100.688 499.816,104.022 499.5,107.5C 502.187,107.336 504.854,107.503 507.5,108C 509.35,108.69 510.684,109.856 511.5,111.5 Z"/></g>
<g><path style="opacity:0.956" fill="#fff2d8" d="M 457.5,511.5 C 448.5,511.5 439.5,511.5 430.5,511.5C 413.363,508.29 396.696,503.124 380.5,496C 358.611,485.812 337.777,473.978 318,460.5C 242.136,481.396 173.97,466.896 113.5,417C 103.266,407.436 93.7664,397.269 85,386.5C 81.8043,377.374 84.971,373.207 94.5,374C 104.081,384.584 114.081,394.917 124.5,405C 149.171,426.502 177.505,440.836 209.5,448C 156.457,398.964 106.957,346.797 61,291.5C 61.8781,300.686 63.8781,309.686 67,318.5C 71.3132,329.78 75.8132,340.946 80.5,352C 80.6994,355.274 79.3661,357.607 76.5,359C 72.4087,360.227 68.9087,359.394 66,356.5C 38.9558,304.037 33.7891,249.537 50.5,193C 43.0417,182.588 36.2083,171.755 30,160.5C 27.8231,153.707 30.1564,149.707 37,148.5C 39.8139,148.408 42.1473,149.408 44,151.5C 69.795,195.296 99.4617,236.296 133,274.5C 185.662,334.824 244.162,388.324 308.5,435C 332.514,452.015 357.847,467.015 384.5,480C 403.491,489.247 423.491,494.747 444.5,496.5C 452.015,495.964 459.348,494.464 466.5,492C 476.068,491.239 479.235,495.406 476,504.5C 475.097,505.701 473.931,506.535 472.5,507C 467.423,508.68 462.423,510.18 457.5,511.5 Z M 61.5,210.5 C 128.452,302.118 207.785,381.452 299.5,448.5C 279.382,453.395 259.049,454.895 238.5,453C 172.847,393.382 112.347,329.215 57,260.5C 56.7426,243.68 58.2426,227.014 61.5,210.5 Z"/></g>
<g><path style="opacity:0.941" fill="#fff2d8" d="M 39.5,380.5 C 47.1559,381.452 50.1559,385.785 48.5,393.5C 55.6216,391.885 59.9549,394.552 61.5,401.5C 59.6351,407.942 55.3018,410.608 48.5,409.5C 50.1708,419.33 46.1708,423.163 36.5,421C 33.0337,417.96 31.7004,414.126 32.5,409.5C 23.2887,410.458 19.4554,406.458 21,397.5C 23.9442,393.886 27.7775,392.553 32.5,393.5C 31.4886,387.18 33.822,382.846 39.5,380.5 Z"/></g>
<g><path style="opacity:0.941" fill="#fff2d8" d="M 120.5,455.5 C 128.156,456.452 131.156,460.785 129.5,468.5C 136.622,466.885 140.955,469.552 142.5,476.5C 140.635,482.942 136.302,485.608 129.5,484.5C 131.171,494.33 127.171,498.163 117.5,496C 114.034,492.96 112.7,489.126 113.5,484.5C 104.289,485.458 100.455,481.458 102,472.5C 104.944,468.886 108.777,467.553 113.5,468.5C 112.489,462.18 114.822,457.846 120.5,455.5 Z"/></g>
<g><path style="opacity:0.942" fill="#fff2d8" d="M 23.5,511.5 C 20.8333,511.5 18.1667,511.5 15.5,511.5C 13.8564,510.684 12.6897,509.35 12,507.5C 11.5026,504.854 11.3359,502.187 11.5,499.5C 8.8127,499.664 6.14603,499.497 3.5,499C 1.64977,498.31 0.316435,497.144 -0.5,495.5C -0.5,492.833 -0.5,490.167 -0.5,487.5C 0.316435,485.856 1.64977,484.69 3.5,484C 6.14603,483.503 8.8127,483.336 11.5,483.5C 9.82919,473.67 13.8292,469.837 23.5,472C 26.9663,475.04 28.2996,478.874 27.5,483.5C 36.7113,482.542 40.5446,486.542 39,495.5C 35.9597,498.966 32.1264,500.3 27.5,499.5C 28.2582,504.271 26.9249,508.271 23.5,511.5 Z"/></g>
</svg>
